<svg width="107" height="43" viewBox="0 0 107 43" fill="none" xmlns="http://www.w3.org/2000/svg">
<path d="M31.766 13.71C29.962 13.71 28.708 14.788 28.708 16.394C28.708 17.296 29.236 18.176 30.248 18.77L33.042 20.398C34.912 21.498 35.616 22.796 35.616 24.336C35.616 26.778 33.46 29 29.456 29C26.442 29 24.44 27.504 24.44 25.458C24.44 23.874 25.32 23.17 26.376 23.17C27.432 23.17 27.718 23.742 27.718 23.742C27.718 23.742 26.948 24.446 26.948 25.568C26.948 26.888 27.894 27.79 29.588 27.79C31.568 27.79 32.8 26.58 32.8 25.15C32.8 24.05 32.25 23.258 30.776 22.422L28.422 21.08C26.574 20.024 25.892 18.77 25.892 17.186C25.892 14.744 27.96 12.5 31.788 12.5C34.912 12.5 37.002 14.062 37.002 16.24C37.002 17.78 36.188 18.682 34.846 18.682C33.79 18.682 33.394 18.11 33.394 18.11C33.394 18.11 34.494 17.494 34.494 15.888C34.494 14.656 33.636 13.71 31.766 13.71ZM47.8178 19.804L46.8718 25.15C46.6298 26.47 47.0258 27.086 47.8178 27.086C48.5658 27.086 49.5558 26.36 50.1278 25.172C50.4138 25.172 50.6118 25.348 50.5458 25.744C50.3258 26.91 48.7418 29 46.6078 29C45.1558 29 44.1438 28.098 44.0338 26.514C43.1318 28.142 41.9218 29 40.6678 29C38.8638 29 37.4337 27.79 37.4337 25.216C37.4337 20.31 40.2938 18 42.8678 18C43.9678 18 44.7378 18.44 45.2438 19.078C45.5958 18.286 46.1458 18 47.2238 18C47.9718 18 48.3238 18.22 48.3238 18.22C48.3238 18.22 48.0378 18.616 47.8178 19.804ZM41.5478 27.086C43.1098 27.086 44.2758 23.786 44.6938 21.586L44.8918 20.552C44.6938 20.112 44.2758 19.496 43.4398 19.496C41.9438 19.496 40.2498 21.718 40.2498 25.26C40.2498 26.492 40.7338 27.086 41.5478 27.086ZM60.3278 27.086C61.1858 27.086 61.9998 26.448 62.6378 25.172C62.9238 25.172 63.1218 25.348 63.0558 25.744C62.8358 26.91 61.2298 29 59.1838 29C57.5338 29 56.5218 27.9 56.5218 26.25C56.5218 25.678 56.6758 24.82 56.8518 23.742L57.2698 21.322C57.4458 20.266 57.2258 19.936 56.7418 19.936C55.3558 19.936 53.2438 23.214 52.5838 26.91C52.3418 28.296 52.5618 28.802 52.5618 28.802C52.5618 28.802 52.2318 29 51.4178 29C49.7238 29 49.5258 28.362 49.7898 26.822L52.2318 12.83C52.4738 11.444 52.2538 10.938 52.2538 10.938C52.2538 10.938 52.5838 10.74 53.3978 10.74C55.0918 10.74 55.2898 11.378 55.0258 12.918L53.5738 21.19C54.4318 19.76 56.0818 18 57.8858 18C59.2718 18 60.1518 18.902 60.1518 20.266C60.1518 20.75 60.0638 21.388 59.9538 22.048L59.4258 25.15C59.2058 26.382 59.4918 27.086 60.3278 27.086ZM72.5892 19.804L71.6432 25.15C71.4012 26.47 71.7972 27.086 72.5892 27.086C73.3372 27.086 74.3272 26.36 74.8992 25.172C75.1852 25.172 75.3832 25.348 75.3172 25.744C75.0972 26.91 73.5132 29 71.3792 29C69.9272 29 68.9152 28.098 68.8052 26.514C67.9032 28.142 66.6932 29 65.4392 29C63.6352 29 62.2052 27.79 62.2052 25.216C62.2052 20.31 65.0652 18 67.6392 18C68.7392 18 69.5092 18.44 70.0152 19.078C70.3672 18.286 70.9172 18 71.9952 18C72.7432 18 73.0952 18.22 73.0952 18.22C73.0952 18.22 72.8092 18.616 72.5892 19.804ZM66.3192 27.086C67.8812 27.086 69.0472 23.786 69.4652 21.586L69.6632 20.552C69.4652 20.112 69.0472 19.496 68.2112 19.496C66.7152 19.496 65.0212 21.718 65.0212 25.26C65.0212 26.492 65.5052 27.086 66.3192 27.086ZM78.5213 20.178L78.3453 21.146C79.7533 18.77 81.2273 18 82.2173 18C83.2953 18 83.9773 18.594 83.9773 19.716C83.9773 20.948 83.2293 21.828 82.1513 21.828C81.5793 21.828 81.1613 21.696 81.1613 21.696C81.1613 21.696 81.4473 21.19 81.4473 20.596C81.4473 20.288 81.3153 20.112 80.9853 20.112C80.6333 20.112 80.1493 20.398 79.4233 21.41C78.5873 22.576 77.8613 23.94 77.3333 27.042C77.1133 28.34 77.3333 28.802 77.3333 28.802C77.3333 28.802 77.0033 29 76.1893 29C74.4953 29 74.2973 28.362 74.5613 26.822L75.7273 20.09C75.9693 18.704 75.7493 18.198 75.7493 18.198C75.7493 18.198 76.0793 18 76.8933 18C78.5873 18 78.7853 18.704 78.5213 20.178Z" fill="white"/>
<rect x="1" y="1" width="105" height="41" rx="10" stroke="white"/>
</svg>
